<svg>
    <symbol id="loader-1"  viewBox="0 0 50 50" viewBox="param(viewBox)" xmlns="http://www.w3.org/2000/svg" x="0" y="0" width="param(width) 40px" height="param(height) 40px">
        <path fill="#000" d="M20.201,5.169c-8.254,0-14.946,6.692-14.946,14.946c0,8.255,6.692,14.946,14.946,14.946
        s14.946-6.691,14.946-14.946C35.146,11.861,28.455,5.169,20.201,5.169z M20.201,31.749c-6.425,0-11.634-5.208-11.634-11.634
        c0-6.425,5.209-11.634,11.634-11.634c6.425,0,11.633,5.209,11.633,11.634C31.834,26.541,26.626,31.749,20.201,31.749z" opacity="0.2"/>
        <path fill="#000" d="M26.013,10.047l1.654-2.866c-2.198-1.272-4.743-2.012-7.466-2.012h0v3.312h0
        C22.32,8.481,24.301,9.057,26.013,10.047z">
            <animateTransform attributeName="transform" attributeType="xml" dur="0.5s" from="0 20 20" repeatCount="indefinite" to="360 20 20" type="rotate"/>
        </path>
    </symbol>
    <symbol id="loader-2" viewBox="0 0 50 50" viewBox="param(viewBox)" xmlns="http://www.w3.org/2000/svg" x="0" y="0" width="param(width) 40px" height="param(height) 40px">
        <path fill="#000" d="M25.251,6.461c-10.318,0-18.683,8.365-18.683,18.683h4.068c0-8.071,6.543-14.615,14.615-14.615V6.461z">
            <animateTransform attributeName="transform" attributeType="xml" dur="0.6s" from="0 25 25" repeatCount="indefinite" to="360 25 25" type="rotate"/>
        </path>
    </symbol>
    <symbol id="loader-3"  viewBox="0 0 50 50" viewBox="param(viewBox)" xmlns="http://www.w3.org/2000/svg" x="0" y="0" width="param(width) 40px" height="param(height) 40px">
        <path fill="param(fill) #000" d="M43.935,25.145c0-10.318-8.364-18.683-18.683-18.683c-10.318,0-18.683,8.365-18.683,18.683h4.068c0-8.071,6.543-14.615,14.615-14.615c8.072,0,14.615,6.543,14.615,14.615H43.935z">
            <animateTransform attributeName="transform" attributeType="xml" dur="0.6s" from="0 25 25" repeatCount="indefinite" to="360 25 25" type="rotate"/>
        </path>
    </symbol>
    <symbol id="loader-4" viewBox="0 0 24 24" viewBox="param(viewBox)" xmlns="http://www.w3.org/2000/svg" x="0" y="0" width="param(width) 40px" height="param(height) 40px">
        <rect width="4" height="7" x="0" y="0" fill="param(fill) #333">
            <animateTransform attributeName="transform" attributeType="xml" begin="0s" dur="0.6s" repeatCount="indefinite" type="scale" values="1,1; 1,3; 1,1"/>
        </rect>
        <rect width="4" height="7" x="10" y="0" fill="param(fill) #333">
            <animateTransform attributeName="transform" attributeType="xml" begin="0.2s" dur="0.6s" repeatCount="indefinite" type="scale" values="1,1; 1,3; 1,1"/>
        </rect>
        <rect width="4" height="7" x="20" y="0" fill="param(fill) #333">
            <animateTransform attributeName="transform" attributeType="xml" begin="0.4s" dur="0.6s" repeatCount="indefinite" type="scale" values="1,1; 1,3; 1,1"/>
        </rect>
    </symbol>
    <symbol id="loader-5" viewBox="0 0 24 30" viewBox="param(viewBox)" xmlns="http://www.w3.org/2000/svg" x="0" y="0" width="param(width) 40px" height="param(height) 40px">
        <rect width="4" height="10" x="0" y="0" fill="param(fill) #333">
            <animateTransform attributeName="transform" attributeType="xml" begin="0" dur="0.6s" repeatCount="indefinite" type="translate" values="0 0; 0 20; 0 0"/>
        </rect>
        <rect width="4" height="10" x="10" y="0" fill="param(fill) #333">
            <animateTransform attributeName="transform" attributeType="xml" begin="0.2s" dur="0.6s" repeatCount="indefinite" type="translate" values="0 0; 0 20; 0 0"/>
        </rect>
        <rect width="4" height="10" x="20" y="0" fill="param(fill) #333">
            <animateTransform attributeName="transform" attributeType="xml" begin="0.4s" dur="0.6s" repeatCount="indefinite" type="translate" values="0 0; 0 20; 0 0"/>
        </rect>
    </symbol>
    <symbol id="loader-6" viewBox="0 0 24 30" viewBox="param(viewBox)" xmlns="http://www.w3.org/2000/svg" x="0" y="0" width="param(width) 40px" height="param(height) 40px">
        <rect width="4" height="5" x="0" y="13" fill="param(fill) #333">
            <animate attributeName="height" attributeType="XML" begin="0s" dur="0.6s" repeatCount="indefinite" values="5;21;5"/>
            <animate attributeName="y" attributeType="XML" begin="0s" dur="0.6s" repeatCount="indefinite" values="13; 5; 13"/>
        </rect>
        <rect width="4" height="5" x="10" y="13" fill="param(fill) #333">
            <animate attributeName="height" attributeType="XML" begin="0.15s" dur="0.6s" repeatCount="indefinite" values="5;21;5"/>
            <animate attributeName="y" attributeType="XML" begin="0.15s" dur="0.6s" repeatCount="indefinite" values="13; 5; 13"/>
        </rect>
        <rect width="4" height="5" x="20" y="13" fill="param(fill) #333">
            <animate attributeName="height" attributeType="XML" begin="0.3s" dur="0.6s" repeatCount="indefinite" values="5;21;5"/>
            <animate attributeName="y" attributeType="XML" begin="0.3s" dur="0.6s" repeatCount="indefinite" values="13; 5; 13"/>
        </rect>
    </symbol>
    <symbol id="loader-7" viewBox="0 0 24 30" viewBox="param(viewBox)" xmlns="http://www.w3.org/2000/svg" x="0" y="0" width="param(width) 40px" height="param(height) 40px">
        <rect width="4" height="20" x="0" y="0" fill="#333">
            <animate attributeName="opacity" attributeType="XML" begin="0s" dur="0.6s" repeatCount="indefinite" values="1; .2; 1"/>
        </rect>
        <rect width="4" height="20" x="7" y="0" fill="#333">
            <animate attributeName="opacity" attributeType="XML" begin="0.2s" dur="0.6s" repeatCount="indefinite" values="1; .2; 1"/>
        </rect>
        <rect width="4" height="20" x="14" y="0" fill="#333">
            <animate attributeName="opacity" attributeType="XML" begin="0.4s" dur="0.6s" repeatCount="indefinite" values="1; .2; 1"/>
        </rect>
    </symbol>
    <symbol id="loader-8" viewBox="0 0 24 30" viewBox="param(viewBox)" xmlns="http://www.w3.org/2000/svg" x="0" y="0" width="param(width) 40px" height="param(height) 40px">
        <rect width="4" height="10" x="0" y="10" fill="#333" opacity="0.2">
            <animate attributeName="opacity" attributeType="XML" begin="0s" dur="0.6s" repeatCount="indefinite" values="0.2; 1; .2"/>
            <animate attributeName="height" attributeType="XML" begin="0s" dur="0.6s" repeatCount="indefinite" values="10; 20; 10"/>
            <animate attributeName="y" attributeType="XML" begin="0s" dur="0.6s" repeatCount="indefinite" values="10; 5; 10"/>
        </rect>
        <rect width="4" height="10" x="8" y="10" fill="#333" opacity="0.2">
            <animate attributeName="opacity" attributeType="XML" begin="0.15s" dur="0.6s" repeatCount="indefinite" values="0.2; 1; .2"/>
            <animate attributeName="height" attributeType="XML" begin="0.15s" dur="0.6s" repeatCount="indefinite" values="10; 20; 10"/>
            <animate attributeName="y" attributeType="XML" begin="0.15s" dur="0.6s" repeatCount="indefinite" values="10; 5; 10"/>
        </rect>
        <rect width="4" height="10" x="16" y="10" fill="#333" opacity="0.2">
            <animate attributeName="opacity" attributeType="XML" begin="0.3s" dur="0.6s" repeatCount="indefinite" values="0.2; 1; .2"/>
            <animate attributeName="height" attributeType="XML" begin="0.3s" dur="0.6s" repeatCount="indefinite" values="10; 20; 10"/>
            <animate attributeName="y" attributeType="XML" begin="0.3s" dur="0.6s" repeatCount="indefinite" values="10; 5; 10"/>
        </rect>
    </symbol>
</svg>
